<svg xmlns="http://www.w3.org/2000/svg" viewBox="0 0 32 32">
<path fill="#25D366" d="M16 .4C7.3.4.3 7.3.3 16c0 2.8.7 5.5 2.1 7.9L.2 31.8l8-2.1c2.3 1.2 4.8 1.8 7.5 1.8 8.7 0 15.7-7 15.7-15.7C31.4 7.3 24.4.4 16 .4zm0 28.6c-2.3 0-4.6-.6-6.6-1.8l-.5-.3-4.8 1.3 1.3-4.6-.3-.5c-1.3-2.1-2-4.5-2-7C3.1 8.5 9.5 2.1 16 2.1S28.9 8.5 28.9 16 22.5 29 16 29zm7.1-9.5c-.4-.2-2.5-1.2-2.9-1.3-.4-.2-.7-.2-1 .2s-1.1 1.3-1.4 1.6c-.2.2-.5.3-.9.1-.4-.2-1.7-.6-3.2-1.9-1.2-1-2-2.3-2.2-2.7-.2-.4 0-.6.2-.8.2-.2.4-.5.6-.7.2-.2.3-.4.4-.7.1-.2 0-.5 0-.7s-1-2.5-1.4-3.4c-.3-.8-.7-.7-1-.7h-.8c-.3 0-.7.1-1 .5s-1.3 1.2-1.3 2.9 1.4 3.4 1.6 3.7c.2.2 2.7 4.2 6.6 5.8.9.4 1.6.6 2.1.8.9.3 1.7.2 2.4.1.7-.1 2.5-1 2.8-2 .3-1 .3-1.9.2-2-.1-.1-.4-.2-.8-.4z"></path>
</svg>